<svg width="24" height="25" viewBox="0 0 24 25" fill="none" xmlns="http://www.w3.org/2000/svg">
<path fill-rule="evenodd" clip-rule="evenodd" d="M19 11V14.5H13V4.51894C16.3562 4.77426 19 7.57838 19 11ZM12 14.5V4.51894C8.64378 4.77426 6 7.57838 6 11V14.5H12ZM5 14.5V11C5 6.85786 8.35786 3.5 12.5 3.5C16.6421 3.5 20 6.85786 20 11V14.5H22H23V15.5V21.5V22.5H22H18H17H13H12H8H7H3H2V21.5V15.5V14.5H3H5ZM8 21.5H12V15.5H8L8 21.5ZM7 15.5H6H5H3V21.5H7L7 15.5ZM13 15.5V21.5H17V15.5H13ZM18 15.5V21.5H22V15.5H20H19H18ZM10 11.5H9V13.5H10V11.5ZM15 11.5H16V13.5H15V11.5Z" fill="white"/>
<path fill-rule="evenodd" clip-rule="evenodd" d="M19 11V14.5H13V4.51894C16.3562 4.77426 19 7.57838 19 11ZM12 14.5V4.51894C8.64378 4.77426 6 7.57838 6 11V14.5H12ZM5 14.5V11C5 6.85786 8.35786 3.5 12.5 3.5C16.6421 3.5 20 6.85786 20 11V14.5H22H23V15.5V21.5V22.5H22H18H17H13H12H8H7H3H2V21.5V15.5V14.5H3H5ZM8 21.5H12V15.5H8L8 21.5ZM7 15.5H6H5H3V21.5H7L7 15.5ZM13 15.5V21.5H17V15.5H13ZM18 15.5V21.5H22V15.5H20H19H18ZM10 11.5H9V13.5H10V11.5ZM15 11.5H16V13.5H15V11.5Z" fill="url(#paint0_linear_590_3043)"/>
<defs>
<linearGradient id="paint0_linear_590_3043" x1="2.46565" y1="13.2295" x2="22.5734" y2="13.2295" gradientUnits="userSpaceOnUse">
<stop offset="0.0798496" stop-color="#AF6F57"/>
<stop offset="0.213542" stop-color="#FDB491"/>
<stop offset="0.364521" stop-color="#C18369"/>
<stop offset="0.527463" stop-color="#A15C40"/>
<stop offset="0.793094" stop-color="#E28F68"/>
<stop offset="0.836637" stop-color="#B66D50"/>
<stop offset="1" stop-color="#A15C40"/>
</linearGradient>
</defs>
</svg>
