<svg width="24" height="25" viewBox="0 0 24 25" fill="none" xmlns="http://www.w3.org/2000/svg">
<path d="M3.90664 8.73266C4.33976 7.81719 4.49683 7 4.99683 6C5.49683 5 11.3405 5 11.9968 5C12.653 5 18.4968 5 18.9968 6C19.4968 7 19.6538 7.81719 20.0869 8.73266M3.90664 8.73266L3.90288 8.74016C3.88128 8.7432 3.86007 8.74854 3.8396 8.75609C3.8085 8.75222 3.7772 8.75019 3.74585 8.75H3.0132C2.8219 8.74825 2.63692 8.81845 2.49496 8.94669C2.353 9.07494 2.26442 9.25185 2.24679 9.44234C2.23847 9.54952 2.25338 9.65723 2.29051 9.75811C2.32764 9.859 2.38612 9.95067 2.46195 10.0269C2.48009 10.0457 2.4936 10.0685 2.50143 10.0934C2.50925 10.1184 2.51117 10.1448 2.50704 10.1706C2.5029 10.1965 2.49282 10.221 2.47759 10.2422C2.46237 10.2635 2.44241 10.2809 2.41929 10.2931C2.01054 10.5144 1.62242 10.7239 1.38288 11.0431C1.27788 11.1837 1.00038 11.5508 0.831166 13.445C0.737416 14.5109 0.723354 15.6144 0.796947 16.325C0.951166 17.8016 1.24039 18.6941 1.25257 18.7311C1.29695 18.8659 1.37865 18.9853 1.48817 19.0755C1.59769 19.1656 1.73055 19.2229 1.87132 19.2406V19.25C1.87132 19.4489 1.95034 19.6397 2.09099 19.7803C2.23164 19.921 2.42241 20 2.62132 20H5.24632C5.44523 20 5.636 19.921 5.77665 19.7803C5.9173 19.6397 5.99632 17.7614 5.99632 17.5625C6.39992 17.5625 6.99683 17.5625 6.99683 17.5625M3.90664 8.73266C4.23997 9.23266 6.39679 10.5 11.9968 10.5C17.5968 10.5 19.7536 9.23266 20.0869 8.73266M6.99683 17.5625H8.49683H11.9746H15.6523H17.015M6.99683 17.5625C6.99683 17.5625 1.3781 17.5625 0.974506 17.5625M20.0869 8.73266L20.0907 8.74016C20.1123 8.7432 20.1335 8.74854 20.154 8.75609C20.1851 8.75222 20.2164 8.75019 20.2477 8.75H20.9804C21.1717 8.74825 21.3567 8.81845 21.4986 8.94669C21.6406 9.07494 21.7292 9.25185 21.7468 9.44234C21.7551 9.54952 21.7402 9.65723 21.7031 9.75811C21.6659 9.859 21.6075 9.95067 21.5316 10.0269C21.5135 10.0457 21.5 10.0685 21.4922 10.0934C21.4843 10.1184 21.4824 10.1448 21.4865 10.1706C21.4907 10.1965 21.5008 10.221 21.516 10.2422C21.5312 10.2635 21.5512 10.2809 21.5743 10.2931C21.983 10.5144 22.3712 10.7239 22.6107 11.0431C22.7157 11.1837 22.9932 11.5508 23.1624 13.445C23.2562 14.5109 23.2702 15.6144 23.1966 16.325C23.0424 17.8016 22.7532 18.6941 22.741 18.7311C22.6966 18.8659 22.6149 18.9853 22.5054 19.0755C22.3959 19.1656 22.263 19.2229 22.1223 19.2406V19.25C22.1223 19.4489 22.0432 19.6397 21.9026 19.7803C21.7619 19.921 21.5712 20 21.3723 20H18.7473C18.5483 20 18.3576 19.921 18.2169 19.7803C18.0763 19.6397 17.9973 17.7614 17.9973 17.5625C17.5937 17.5625 17.015 17.5625 17.015 17.5625M17.015 17.5625C17.015 17.5625 22.6155 17.5625 23.0191 17.5625M6.8077 15.219C5.95024 15.4091 5.08729 15.5029 4.22365 15.4999C3.69527 15.4999 3.15045 15.2245 3.04926 14.3578C2.97997 13.7747 2.98745 13.4469 3.02484 13.1173C3.05624 12.8373 3.10609 12.6335 3.35532 12.5618C4.00333 12.3782 4.36571 12.6087 5.42645 13.1844C6.12978 13.5654 6.63722 14.0731 6.92633 14.4753C7.07139 14.6736 6.99412 15.1914 6.8077 15.219ZM17.1859 15.219C18.0433 15.4091 18.9063 15.5029 19.7699 15.4999C20.2983 15.4999 20.8431 15.2245 20.9443 14.3578C21.0136 13.7747 21.0061 13.4469 20.9687 13.1173C20.9373 12.8373 20.8875 12.6335 20.6383 12.5618C19.9903 12.3782 19.6279 12.6087 18.5671 13.1844C17.8638 13.5654 17.3564 14.0731 17.0672 14.4753C16.9222 14.6736 16.9995 15.1914 17.1859 15.219Z" stroke="white"/>
<path d="M3.90664 8.73266C4.33976 7.81719 4.49683 7 4.99683 6C5.49683 5 11.3405 5 11.9968 5C12.653 5 18.4968 5 18.9968 6C19.4968 7 19.6538 7.81719 20.0869 8.73266M3.90664 8.73266L3.90288 8.74016C3.88128 8.7432 3.86007 8.74854 3.8396 8.75609C3.8085 8.75222 3.7772 8.75019 3.74585 8.75H3.0132C2.8219 8.74825 2.63692 8.81845 2.49496 8.94669C2.353 9.07494 2.26442 9.25185 2.24679 9.44234C2.23847 9.54952 2.25338 9.65723 2.29051 9.75811C2.32764 9.859 2.38612 9.95067 2.46195 10.0269C2.48009 10.0457 2.4936 10.0685 2.50143 10.0934C2.50925 10.1184 2.51117 10.1448 2.50704 10.1706C2.5029 10.1965 2.49282 10.221 2.47759 10.2422C2.46237 10.2635 2.44241 10.2809 2.41929 10.2931C2.01054 10.5144 1.62242 10.7239 1.38288 11.0431C1.27788 11.1837 1.00038 11.5508 0.831166 13.445C0.737416 14.5109 0.723354 15.6144 0.796947 16.325C0.951166 17.8016 1.24039 18.6941 1.25257 18.7311C1.29695 18.8659 1.37865 18.9853 1.48817 19.0755C1.59769 19.1656 1.73055 19.2229 1.87132 19.2406V19.25C1.87132 19.4489 1.95034 19.6397 2.09099 19.7803C2.23164 19.921 2.42241 20 2.62132 20H5.24632C5.44523 20 5.636 19.921 5.77665 19.7803C5.9173 19.6397 5.99632 17.7614 5.99632 17.5625C6.39992 17.5625 6.99683 17.5625 6.99683 17.5625M3.90664 8.73266C4.23997 9.23266 6.39679 10.5 11.9968 10.5C17.5968 10.5 19.7536 9.23266 20.0869 8.73266M6.99683 17.5625H8.49683H11.9746H15.6523H17.015M6.99683 17.5625C6.99683 17.5625 1.3781 17.5625 0.974506 17.5625M20.0869 8.73266L20.0907 8.74016C20.1123 8.7432 20.1335 8.74854 20.154 8.75609C20.1851 8.75222 20.2164 8.75019 20.2477 8.75H20.9804C21.1717 8.74825 21.3567 8.81845 21.4986 8.94669C21.6406 9.07494 21.7292 9.25185 21.7468 9.44234C21.7551 9.54952 21.7402 9.65723 21.7031 9.75811C21.6659 9.859 21.6075 9.95067 21.5316 10.0269C21.5135 10.0457 21.5 10.0685 21.4922 10.0934C21.4843 10.1184 21.4824 10.1448 21.4865 10.1706C21.4907 10.1965 21.5008 10.221 21.516 10.2422C21.5312 10.2635 21.5512 10.2809 21.5743 10.2931C21.983 10.5144 22.3712 10.7239 22.6107 11.0431C22.7157 11.1837 22.9932 11.5508 23.1624 13.445C23.2562 14.5109 23.2702 15.6144 23.1966 16.325C23.0424 17.8016 22.7532 18.6941 22.741 18.7311C22.6966 18.8659 22.6149 18.9853 22.5054 19.0755C22.3959 19.1656 22.263 19.2229 22.1223 19.2406V19.25C22.1223 19.4489 22.0432 19.6397 21.9026 19.7803C21.7619 19.921 21.5712 20 21.3723 20H18.7473C18.5483 20 18.3576 19.921 18.2169 19.7803C18.0763 19.6397 17.9973 17.7614 17.9973 17.5625C17.5937 17.5625 17.015 17.5625 17.015 17.5625M17.015 17.5625C17.015 17.5625 22.6155 17.5625 23.0191 17.5625M6.8077 15.219C5.95024 15.4091 5.08729 15.5029 4.22365 15.4999C3.69527 15.4999 3.15045 15.2245 3.04926 14.3578C2.97997 13.7747 2.98745 13.4469 3.02484 13.1173C3.05624 12.8373 3.10609 12.6335 3.35532 12.5618C4.00333 12.3782 4.36571 12.6087 5.42645 13.1844C6.12978 13.5654 6.63722 14.0731 6.92633 14.4753C7.07139 14.6736 6.99412 15.1914 6.8077 15.219ZM17.1859 15.219C18.0433 15.4091 18.9063 15.5029 19.7699 15.4999C20.2983 15.4999 20.8431 15.2245 20.9443 14.3578C21.0136 13.7747 21.0061 13.4469 20.9687 13.1173C20.9373 12.8373 20.8875 12.6335 20.6383 12.5618C19.9903 12.3782 19.6279 12.6087 18.5671 13.1844C17.8638 13.5654 17.3564 14.0731 17.0672 14.4753C16.9222 14.6736 16.9995 15.1914 17.1859 15.219Z" stroke="url(#paint0_linear_590_3132)"/>
<defs>
<linearGradient id="paint0_linear_590_3132" x1="-5.75048" y1="15.9719" x2="22.6444" y2="15.9719" gradientUnits="userSpaceOnUse">
<stop offset="0.0798496" stop-color="#AF6F57"/>
<stop offset="0.213542" stop-color="#FDB491"/>
<stop offset="0.364521" stop-color="#C18369"/>
<stop offset="0.527463" stop-color="#A15C40"/>
<stop offset="0.793094" stop-color="#E28F68"/>
<stop offset="0.836637" stop-color="#B66D50"/>
<stop offset="1" stop-color="#A15C40"/>
</linearGradient>
</defs>
</svg>
