<svg width="806" height="355" viewBox="0 0 806 355" fill="none" xmlns="http://www.w3.org/2000/svg">
<path d="M770.967 353.492C770.967 351.667 770.359 350.329 769.386 349.599C767.804 348.504 765.615 348.991 765.615 348.991L765.128 349.113L764.885 348.626C764.398 347.41 763.668 346.68 762.695 346.437C760.871 345.95 758.803 347.166 758.803 347.166L758.073 347.653L757.83 346.801C757.708 345.95 757.343 345.463 756.735 345.099C755.64 344.369 754.18 344.734 754.18 344.734L753.329 344.977L753.451 344.125C753.815 341.571 753.329 339.625 752.234 338.53C750.288 336.705 747.125 337.192 747.125 337.192L746.882 335.975C747.003 335.975 750.774 335.367 753.086 337.678C754.424 339.016 755.032 340.963 754.789 343.639C755.518 343.639 756.613 343.639 757.465 344.247C758.073 344.612 758.559 345.22 758.924 345.95C759.898 345.463 761.479 344.977 763.182 345.463C764.398 345.828 765.25 346.558 765.98 347.896C766.831 347.775 768.777 347.653 770.237 348.748C771.575 349.721 772.183 351.302 772.305 353.613L770.967 353.492Z" fill="#595858" fill-opacity="0.5"/>
<path d="M166.692 343.888L166 343.523C166 343.402 166.538 340.847 167.769 340.239C168.231 339.996 168.769 340.117 169.308 340.604C169.615 339.996 170.231 339.144 171 339.023C171.692 338.901 172.385 339.266 173 340.239L172.462 341.091C172 340.361 171.538 340.117 171.077 340.239C170.231 340.361 169.692 341.699 169.692 341.699L169.462 342.185L169.154 341.82C168.692 341.334 168.385 341.09 168 341.334C167.308 341.82 166.846 343.402 166.692 343.888Z" fill="#595858" fill-opacity="0.5"/>
<path d="M94.0294 349.113L93.0563 348.504C93.1779 348.383 94.8809 345.585 97.6787 345.098C98.6518 344.855 99.7466 345.098 100.72 345.585C100.963 344.733 101.693 343.274 103.031 342.422C104.247 341.692 105.707 341.449 107.288 341.814C107.653 340.719 108.626 338.165 110.451 337.313C111.546 336.827 112.641 336.827 113.979 337.435L113.492 338.53C112.519 338.043 111.789 338.043 111.059 338.408C109.113 339.381 108.383 342.666 108.383 342.666L108.262 343.274L107.653 343.152C106.072 342.666 104.734 342.787 103.761 343.517C102.058 344.612 101.693 346.68 101.693 346.801L101.571 347.775L100.72 347.166C99.7466 346.436 98.8951 346.193 97.922 346.436C95.6108 346.558 94.0294 348.991 94.0294 349.113Z" fill="#595858" fill-opacity="0.5"/>
<path d="M119.939 207.765C117.384 206.305 114.222 206.427 113.735 206.427V182.706H112.519V208.494V354.708H133.198V352.275C132.59 352.275 131.86 351.91 130.765 350.329H159.351C159.229 351.302 159.108 352.275 158.864 353.37L158.621 354.83H164.46L164.703 353.857C184.896 256.665 120.547 208.13 119.939 207.765ZM130.4 349.599C129.913 348.748 129.427 347.41 128.94 345.828H159.837C159.716 347.045 159.472 348.261 159.351 349.599H130.4ZM125.413 325.757H161.419C161.419 326.487 161.419 327.095 161.419 327.825H125.656C125.534 327.095 125.534 326.487 125.413 325.757ZM161.297 328.433C161.297 329.65 161.175 330.988 161.175 332.204H126.143C126.021 330.988 125.778 329.772 125.656 328.433H161.297ZM161.175 332.813C161.054 334.029 161.054 335.367 160.932 336.583H126.872C126.629 335.367 126.508 334.151 126.264 332.813H161.175ZM160.811 337.192C160.689 338.408 160.567 339.625 160.446 340.963H127.724C127.481 339.868 127.237 338.53 126.994 337.192H160.811ZM160.446 341.571C160.324 342.787 160.202 344.004 159.959 345.342H128.819C128.454 344.247 128.21 343.03 127.846 341.571H160.446ZM162.514 352.275H161.54C163.122 341.936 163.852 333.542 163.852 324.541V323.324H122.737L122.858 324.663C124.561 341.328 126.872 348.991 129.184 352.275H114.83V208.859C115.803 208.859 117.384 209.103 118.601 209.832C118.722 209.954 134.901 221.753 148.646 247.055C160.446 268.586 172.245 304.227 162.514 352.275Z" fill="#595858" fill-opacity="0.5"/>
<path d="M161.176 290.846L161.055 289.873H120.67V291.089C121.035 301.551 121.643 310.795 122.494 320.405L122.616 321.5H163.853V320.283C163.853 310.065 163.001 301.307 161.176 290.846ZM159.96 298.874H123.467C123.467 297.658 123.346 296.32 123.346 295.104H159.473C159.595 296.32 159.838 297.658 159.96 298.874ZM160.082 299.483C160.203 300.699 160.447 302.037 160.568 303.254H123.832C123.711 302.037 123.711 300.699 123.589 299.483H160.082ZM160.568 303.862C160.69 305.078 160.811 306.416 160.933 307.633H123.954C123.832 306.416 123.832 305.078 123.711 303.862H160.568ZM160.933 308.241C161.055 309.457 161.055 310.795 161.176 312.012H124.319C124.197 310.795 124.197 309.457 124.076 308.241H160.933ZM124.319 312.498H161.176C161.176 313.715 161.298 315.053 161.298 316.269H124.562C124.562 315.053 124.44 313.836 124.319 312.498ZM158.987 292.306C159.108 293.036 159.23 293.765 159.352 294.495H123.346C123.346 293.765 123.346 293.036 123.224 292.306H158.987ZM124.927 319.067C124.805 318.337 124.805 317.607 124.684 316.877H161.42C161.42 317.607 161.42 318.337 161.42 319.067H124.927Z" fill="#595858" fill-opacity="0.5"/>
<path d="M160.689 286.589C158.499 275.641 155.337 265.18 151.079 255.448L150.714 254.718H120.182V255.935C120.182 266.639 120.304 277.101 120.669 286.954V288.17H160.932L160.689 286.589ZM151.931 264.45H122.615C122.615 263.233 122.615 261.895 122.615 260.679H150.592C151.079 261.895 151.566 263.112 151.931 264.45ZM152.174 265.058C152.66 266.274 153.025 267.612 153.512 268.829H122.736C122.736 267.612 122.736 266.274 122.736 265.058H152.174ZM153.634 269.437C153.998 270.653 154.363 271.992 154.85 273.208H122.736C122.736 271.992 122.736 270.653 122.736 269.437H153.634ZM154.972 273.695C155.337 274.911 155.701 276.249 156.066 277.465H122.858C122.858 276.249 122.858 274.911 122.736 273.695H154.972ZM156.188 278.074C156.553 279.29 156.796 280.628 157.161 281.845H122.98C122.98 280.628 122.858 279.29 122.858 278.074H156.188ZM149.133 257.151C149.498 258.124 149.984 259.098 150.349 260.071H122.615C122.615 259.098 122.615 258.124 122.615 257.151H149.133ZM122.98 285.615C122.98 284.521 122.98 283.548 122.858 282.453H157.161C157.404 283.548 157.648 284.521 157.891 285.615H122.98Z" fill="#595858" fill-opacity="0.5"/>
<path d="M149.741 251.191C140.375 232.093 129.062 220.659 124.683 216.523L124.318 216.158L124.196 216.036C124.075 215.915 123.101 215.55 122.25 216.036C121.885 216.158 121.398 216.644 121.277 217.618C120.669 222.727 120.304 236.107 120.182 251.677V252.894H150.592L149.741 251.191ZM123.345 217.983H123.71H123.345ZM123.588 218.956C127.845 222.97 137.09 232.58 145.362 247.907H122.736C122.736 232.701 123.223 223.092 123.588 218.956ZM122.98 217.861H122.493H122.98ZM122.615 250.583C122.615 249.853 122.615 249.245 122.615 248.515H145.605C145.97 249.123 146.335 249.853 146.7 250.583H122.615Z" fill="#595858" fill-opacity="0.5"/>
<path d="M217.679 190.005H216.462V207.765H217.679V190.005Z" fill="#595858" fill-opacity="0.5"/>
<path d="M214.516 190.005H213.3V207.765H214.516V190.005Z" fill="#595858" fill-opacity="0.5"/>
<path d="M211.475 190.005H210.259V207.765H211.475V190.005Z" fill="#595858" fill-opacity="0.5"/>
<path d="M208.313 190.005H207.096V207.765H208.313V190.005Z" fill="#595858" fill-opacity="0.5"/>
<path d="M280.325 221.875H279.109V239.635H280.325V221.875Z" fill="#595858" fill-opacity="0.5"/>
<path d="M283.366 221.875H282.15V239.635H283.366V221.875Z" fill="#595858" fill-opacity="0.5"/>
<path d="M286.529 221.875H285.312V239.635H286.529V221.875Z" fill="#595858" fill-opacity="0.5"/>
<path d="M289.57 221.875H288.354V239.635H289.57V221.875Z" fill="#595858" fill-opacity="0.5"/>
<path fill-rule="evenodd" clip-rule="evenodd" d="M261.216 150V180.046L299.412 217.39V316.094C299.007 315.69 298.601 315.282 298.196 314.868V217.876L261.216 181.627V198.657H272.286V202.793H261.216V216.66H272.772V240.258H261.216V243.908H290.654V306.624C290.249 306.151 289.843 305.673 289.437 305.189V304.972H289.256C289.087 304.77 288.918 304.567 288.749 304.364H289.437V300.958H285.988C285.828 300.756 285.668 300.553 285.508 300.35H289.437V296.944H282.881C282.729 296.742 282.576 296.539 282.423 296.335H289.437V292.929H279.911C279.765 292.727 279.618 292.525 279.472 292.321H289.437V288.915H277.059C276.918 288.713 276.778 288.51 276.637 288.307H289.437V284.901H268.88V284.293H289.437V280.887H268.88V280.279H289.437V276.873H268.88V276.264H289.437V272.858H268.88V272.25H289.437V268.844H268.88V268.236H289.437V264.83H268.88V264.222H289.437V260.816H268.88V260.208H289.437V256.802H268.88V256.193H289.437V252.788H268.88V252.179H289.437V248.773H268.88V248.165H289.437V245.124H260.73V287.152C260.528 287.181 260.325 287.211 260.122 287.24V245.246H260V240.38V216.781V202.914V198.778V180.289V178.829V150H261.216ZM260 353.558V354.237H260.608H299.412V353.533L260 353.558ZM271.069 199.873H261.216V201.576H271.069V199.873ZM271.556 217.876H261.216V239.042H271.556V217.876Z" fill="#595858" fill-opacity="0.5"/>
<path fill-rule="evenodd" clip-rule="evenodd" d="M368.272 81.9866H360V82.5948H368.272V81.9866ZM348.079 160.081H356.594V160.689H348.079V160.081ZM356.594 164.46H348.079V165.068H356.594V164.46ZM340.295 222.605H351.486V223.213H340.295V222.605ZM340.295 226.862H351.486V227.471H340.295V226.862ZM351.486 235.499H340.295V236.107H351.486V235.499ZM340.295 231.242H351.486V231.85H340.295V231.242ZM351.486 244.135H340.295V244.744H351.486V244.135ZM340.295 239.757H351.486V240.365H340.295V239.757ZM351.486 252.772H340.295V253.38H351.486V252.772ZM340.295 248.393H351.486V249.001H340.295V248.393ZM351.486 269.923H340.295V270.532H351.486V269.923ZM340.295 265.666H351.486V266.274H340.295V265.666ZM351.486 261.409H340.295V262.017H351.486V261.409ZM340.295 257.03H351.486V257.638H340.295V257.03ZM347.593 280.628H335.915V281.236H347.593V280.628ZM335.915 276.249H347.593V276.857H335.915V276.249ZM347.593 289.265H335.915V289.873H347.593V289.265ZM335.915 284.885H347.593V285.494H335.915V284.885ZM347.593 297.901H335.915V298.509H347.593V297.901ZM335.915 293.522H347.593V294.13H335.915V293.522ZM347.593 306.416H335.915V307.024H347.593V306.416ZM335.915 302.159H347.593V302.767H335.915V302.159ZM347.593 310.795H335.915V311.404H347.593V310.795ZM374.354 245.717H386.032V246.325H374.354V245.717ZM386.032 241.459H374.354V242.068H386.032V241.459ZM374.354 254.354H386.032V254.962H374.354V254.354ZM386.032 250.096H374.354V250.704H386.032V250.096ZM374.354 262.99H386.032V263.598H374.354V262.99ZM386.032 258.611H374.354V259.219H386.032V258.611ZM374.354 271.627H386.032V272.235H374.354V271.627ZM386.032 267.247H374.354V267.856H386.032V267.247ZM374.354 284.521H386.032V285.129H374.354V284.521ZM386.032 280.142H374.354V280.75H386.032V280.142ZM374.354 275.884H386.032V276.492H374.354V275.884ZM356.594 173.097H348.079V173.705H356.594V173.097ZM348.079 168.717H356.594V169.326H348.079V168.717ZM356.594 181.733H348.079V182.341H356.594V181.733ZM348.079 177.354H356.594V177.962H348.079V177.354ZM356.594 190.248H348.079V190.856H356.594V190.248ZM348.079 185.991H356.594V186.599H348.079V185.991ZM356.594 216.158H348.079V216.766H356.594V216.158ZM348.079 211.779H356.594V212.387H348.079V211.779ZM356.594 198.885H348.079V199.493H356.594V198.885ZM348.079 194.627H356.594V195.235H348.079V194.627ZM356.594 207.521H348.079V208.13H356.594V207.521ZM348.079 203.264H356.594V203.872H348.079V203.264ZM360 86.2441H368.272V86.8523H360V86.2441ZM368.272 96.0972H354.04V96.7054H368.272V96.0972ZM354.04 104.734H368.272V105.342H354.04V104.734ZM368.272 100.476H354.04V101.085H368.272V100.476ZM354.04 113.37H368.272V113.979H354.04V113.37ZM368.272 108.991H354.04V109.6H368.272V108.991ZM354.04 143.538H360.974V144.146H354.04V143.538ZM360.974 139.158H354.04V139.767H360.974V139.158ZM354.04 152.174H360.974V152.782H354.04V152.174ZM360.974 147.795H354.04V148.403H360.974V147.795ZM354.04 122.007H360.974V122.615H354.04V122.007ZM368.272 118.236V117.628H360.974H354.04V118.236H360.974H368.272ZM354.04 134.901H360.974V135.509H354.04V134.901ZM360.974 130.643H354.04V131.252H360.974V130.643ZM354.04 126.264H360.974V126.873H354.04V126.264ZM372.651 128.819H364.136V129.427H372.651V128.819ZM364.136 124.561H372.651V125.169H364.136V124.561ZM372.651 137.455H364.136V138.064H372.651V137.455ZM364.136 133.198H372.651V133.806H364.136V133.198ZM372.651 146.092H364.136V146.7H372.651V146.092ZM364.136 141.835H372.651V142.443H364.136V141.835ZM372.651 154.729H364.136V155.337H372.651V154.729ZM364.136 150.35H372.651V150.958H364.136V150.35ZM372.651 163.365H364.136V163.973H372.651V163.365ZM364.136 158.986H372.651V159.594H364.136V158.986ZM372.651 171.88H364.136V172.488H372.651V171.88ZM364.136 167.623H372.651V168.231H364.136V167.623ZM381.044 184.653H368.758V185.261H381.044V184.653ZM368.758 180.395H381.044V181.003H368.758V180.395ZM381.044 193.289H368.758V193.897H381.044V193.289ZM368.758 189.032H381.044V189.64H368.758V189.032ZM381.044 201.926H368.758V202.534H381.044V201.926ZM368.758 197.546H381.044V198.155H368.758V197.546ZM381.044 210.562H368.758V211.171H381.044V210.562ZM368.758 206.183H381.044V206.791H368.758V206.183ZM381.044 219.077H368.758V219.686H381.044V219.077ZM368.758 214.82H381.044V215.428H368.758V214.82ZM381.044 232.093H368.758V232.701H381.044V232.093ZM368.758 227.714H381.044V228.322H368.758V227.714ZM381.044 223.456H368.758V224.065H381.044V223.456ZM331.05 322.23H342.484V322.838H331.05V322.23ZM342.484 317.851H331.05V318.459H342.484V317.851ZM331.05 330.866H342.484V331.475H331.05V330.866ZM342.484 326.487H331.05V327.095H342.484V326.487ZM331.299 339.381H342.484V339.989H332.485C332.089 339.788 331.693 339.586 331.299 339.381ZM341.836 344.369H342.484V343.76H340.45C340.91 343.965 341.372 344.167 341.836 344.369ZM342.484 335.124H331.05V335.732H342.484V335.124ZM379.341 330.38H393.33V330.988H379.341V330.38ZM393.33 338.895H379.341V339.503H393.33V338.895ZM379.341 334.637H393.33V335.246H379.341V334.637ZM393.33 347.531H379.341V348.139H393.33V347.531ZM379.341 343.274H393.33V343.882H379.341V343.274ZM393.33 295.833H379.341V296.442H393.33V295.833ZM379.341 291.576H393.33V292.184H379.341V291.576ZM393.33 304.47H379.341V305.078H393.33V304.47ZM379.341 300.213H393.33V300.821H379.341V300.213ZM393.33 313.106H379.341V313.715H393.33V313.106ZM379.341 308.849H393.33V309.457H379.341V308.849ZM393.33 326.001H379.341V326.609H393.33V326.001ZM379.341 321.743H393.33V322.351H379.341V321.743ZM393.33 317.364H379.341V317.972H393.33V317.364Z" fill="#595858" fill-opacity="0.5"/>
<path fill-rule="evenodd" clip-rule="evenodd" d="M389.438 236.35V287.075H396.371V354.586H327.887V353.515L365.656 353.492C364.239 352.993 362.84 352.497 361.46 352.003V124.683C361.46 121.52 364.136 120.304 365.961 120.304H369.002V92.083H359.514V92.6912H353.067V155.945H355.257C357.081 155.945 359.757 157.161 359.757 160.324V351.39C358.981 351.11 358.211 350.829 357.446 350.548V160.324C357.446 158.5 355.743 158.378 355.378 158.378H348.08H347.471V217.739H350.148C351.972 217.739 354.648 218.956 354.648 222.118V349.511C353.79 349.189 352.939 348.866 352.094 348.542V222.118C352.094 220.294 350.512 220.172 350.026 220.172H340.781H340.173L340.051 271.505H346.012C347.836 271.505 350.512 272.721 350.512 275.884V347.93C349.737 347.628 348.966 347.324 348.201 347.018V276.006C348.201 274.181 346.62 274.059 346.133 274.059H340.173H336.767H335.307V312.985H341.389C342.971 313.107 345.89 314.08 345.89 317.364V346.081C345.114 345.762 344.344 345.441 343.579 345.117V317.364C343.579 315.539 341.754 315.418 341.511 315.418H335.429H330.563V338.998C329.665 338.526 328.774 338.046 327.887 337.555V312.985H332.874V271.627H336.767H337.74V217.739H345.039V155.945H350.756V90.2584H357.203V0H362.19V41.4799H365.231V77.121H371.557V120.304H375.449V175.408H384.207V236.35H389.438ZM387.005 287.075V238.662L382.991 238.783H375.692C375.206 238.783 373.624 239.027 373.624 240.73V352.275H376.422V291.454C376.422 288.292 379.098 287.075 380.923 287.075H387.005ZM381.774 236.35V177.841L373.016 177.719H370.218C369.732 177.719 368.151 177.962 368.151 179.665V352.275H371.192V240.73C371.192 237.567 373.868 236.35 375.692 236.35H381.774ZM372.895 175.408V122.737H370.218H365.961C365.474 122.737 363.893 122.98 363.893 124.683V352.275H365.596V179.787C365.596 176.624 368.272 175.408 370.097 175.408H372.895ZM369.124 90.9882V79.5539H362.798V78.9457H359.636V90.9882H369.124ZM359.757 43.9128V2.43284L359.636 77.7292H362.798V43.9128H359.757ZM378.855 352.275H394.06V289.508H388.221H380.923C380.436 289.508 378.855 289.751 378.855 291.454V352.275Z" fill="#595858" fill-opacity="0.5"/>
<path fill-rule="evenodd" clip-rule="evenodd" d="M235.196 148.038V117.993H236.412V146.822V148.282V166.771V170.907V184.774V208.373V213.238H236.29V297.827C236.088 297.866 235.885 297.905 235.682 297.945V213.117H206.975V216.158H227.532V216.766H206.975V220.172H227.532V220.78H206.975V224.186H227.532V224.794H206.975V228.2H227.532V228.809H206.975V232.215H227.532V232.823H206.975V236.229H227.532V236.837H206.975V240.243H227.532V240.851H206.975V244.136H227.532V244.744H206.975V248.15H227.532V248.758H206.975V252.164H227.532V252.772H206.975V256.178H227.532V256.786H206.975V260.192H227.532V260.8H206.975V264.206H227.532V264.815H206.975V268.221H227.532V268.829H206.975V272.113H227.532V272.721H206.975V276.127H227.532V276.736H206.975V280.142H227.532V280.75H206.975V284.156H227.532V284.764H206.975V288.17H227.532V288.778H206.975V292.184H227.532V292.792H206.975V296.198H227.532V296.807H206.975V300.091H226.703C226.01 300.287 225.319 300.489 224.628 300.699H206.975V304.105H215.024C214.536 304.304 214.05 304.507 213.565 304.713H206.975V307.8C206.567 308.009 206.162 308.221 205.758 308.436V212.022H235.196V208.373H223.64V184.774H235.196V170.907H224.126V166.771H235.196V149.741L198.216 185.991V312.915C197.808 313.185 197.403 313.459 197 313.736V185.504L235.196 148.038ZM197 353.597V353.857H235.804H236.412V353.572L197 353.597ZM235.196 169.691V167.988H225.343V169.691H235.196ZM235.196 207.156V185.991H224.856V207.156H235.196Z" fill="#595858" fill-opacity="0.5"/>
<path d="M275.519 288.17L274.425 286.224L274.303 277.83H273.087V284.521V290.116H249.245C249.002 290.116 242.919 289.995 240 292.792C239.027 293.766 238.419 295.104 238.419 296.442V297.901C230.634 299.604 222.484 302.037 214.455 305.443C190.492 315.783 175.53 331.718 169.934 353.005L169.569 354.587H365.291L365.413 352.154C306.781 344.855 275.884 288.657 275.519 288.17ZM303.862 345.585H334.151C336.827 346.801 339.746 348.018 342.544 349.113H314.08C310.431 348.018 307.025 346.923 303.862 345.585ZM173.827 349.721H192.56C191.222 350.937 190.37 351.789 189.883 352.275H172.975C173.34 351.302 173.583 350.572 173.827 349.721ZM189.275 325.149H266.153V327.704C260.071 327.704 254.475 328.069 249.123 328.555H185.991C187.086 327.46 188.181 326.244 189.275 325.149ZM302.524 324.541H282.088H275.641V321.135H298.753C299.97 322.23 301.308 323.446 302.524 324.541ZM273.33 344.734H268.586V337.8H273.33V344.734ZM273.33 328.312H268.586V321.378H273.33V328.312ZM273.33 320.162H268.586V313.228H273.33V320.162ZM273.33 312.012H268.586V305.078H273.33V312.012ZM268.586 336.462V329.528H273.33V336.462H268.586ZM275.763 328.434V325.149H282.21H303.254C304.592 326.366 305.93 327.46 307.39 328.677H276.006C275.884 328.555 275.763 328.434 275.763 328.434ZM275.763 312.985H290.968C291.941 314.08 293.036 315.296 294.131 316.513H282.21H275.763V312.985V312.985ZM275.763 312.377V308.849H282.21H287.44C288.414 309.944 289.387 311.16 290.481 312.377H275.763ZM282.088 308.241H275.641V304.713H283.913C284.764 305.808 285.737 307.024 286.711 308.241H282.088ZM275.763 304.227V300.699H280.993C281.845 301.794 282.696 303.01 283.669 304.227H275.763ZM275.763 300.091V296.442V293.036C276.858 294.86 278.561 297.293 280.507 300.091H275.763ZM273.33 303.862H268.586V296.563C270.167 296.563 271.749 296.442 273.33 296.442V303.862ZM266.153 300.091H240.243C248.88 298.266 257.638 297.171 266.153 296.685V300.091ZM266.153 300.699V304.227H225.281C229.295 302.889 233.431 301.672 237.567 300.699H266.153ZM266.153 304.835V308.363H214.82C217.618 307.146 220.537 305.93 223.578 304.835H266.153ZM266.153 308.849V312.377H206.67C208.86 311.16 211.171 309.944 213.482 308.849H266.153ZM266.153 312.985V316.513H199.98C201.804 315.296 203.629 314.08 205.575 312.985H266.153ZM266.153 316.999V320.527H194.506C195.966 319.31 197.547 318.216 199.128 316.999H266.153ZM266.153 321.135V324.663H189.883C191.1 323.446 192.438 322.351 193.776 321.135H266.153ZM244.014 329.285C237.567 330.137 231.85 331.353 226.741 332.813H182.707C183.558 331.596 184.531 330.501 185.504 329.285H244.014ZM224.551 333.299C220.902 334.394 217.496 335.61 214.455 336.827H179.909C180.639 335.61 181.49 334.516 182.22 333.299H224.551ZM212.995 337.435C210.319 338.53 207.887 339.746 205.575 340.963H177.598C178.206 339.746 178.814 338.651 179.544 337.435H212.995ZM204.481 341.449C202.291 342.666 200.345 343.76 198.763 344.977H175.651C176.138 343.76 176.746 342.666 177.233 341.449H204.481ZM197.79 345.585C195.966 346.801 194.384 348.018 193.168 349.113H173.948C174.313 347.896 174.8 346.801 175.286 345.585H197.79ZM193.411 352.275C199.736 346.558 221.632 330.501 266.153 330.258V352.275H193.411ZM268.586 345.95H273.33V352.275H268.586V345.95ZM307.998 329.285C309.458 330.501 310.917 331.596 312.499 332.813H307.146H280.993C279.047 331.353 277.587 330.137 276.614 329.285H307.998ZM307.268 333.299H313.35C314.931 334.516 316.634 335.61 318.337 336.827H286.832C284.886 335.61 283.183 334.394 281.723 333.299H307.268ZM319.311 337.435C321.135 338.651 323.082 339.746 325.028 340.963H314.931H307.268H293.887C291.698 339.746 289.752 338.651 287.927 337.435H319.311ZM307.268 341.449H314.931H326.123C328.312 342.666 330.502 343.882 332.813 344.977H302.402C299.726 343.882 297.293 342.666 294.982 341.449H307.268ZM298.145 320.527H275.763V316.999H282.21H294.739C295.834 318.216 296.928 319.31 298.145 320.527ZM239.878 296.442C239.878 295.347 240.243 294.374 241.095 293.644C243.649 291.211 249.366 291.211 249.488 291.211H273.33V291.698V294.009C266.518 294.009 254.11 294.617 239.878 297.658V296.442ZM275.763 352.275V331.718C280.02 335.245 290.481 343.274 305.322 348.869H302.281V350.086H305.443V348.991C308.971 350.329 312.742 351.424 316.634 352.397H275.763V352.275ZM337.192 352.275C329.772 352.275 322.838 351.302 316.513 349.721H344.247C347.045 350.694 349.843 351.545 352.762 352.275H337.192Z" fill="#595858" fill-opacity="0.5"/>
<path fill-rule="evenodd" clip-rule="evenodd" d="M245.718 332.448H242.555V333.664H245.718V332.448ZM248.88 332.448H252.043V333.664H248.88V332.448ZM258.49 332.448H255.327V333.664H258.49V332.448ZM264.815 332.448H261.652V333.664H264.815V332.448ZM264.815 336.462H261.652V337.678H264.815V336.462ZM261.652 340.598H264.815V341.814H261.652V340.598ZM264.815 344.733H261.652V345.95H264.815V344.733ZM261.652 348.748H264.815V349.964H261.652V348.748ZM255.327 336.462H258.49V337.678H255.327V336.462ZM258.49 340.598H255.327V341.814H258.49V340.598ZM255.327 344.733H258.49V345.95H255.327V344.733ZM258.49 348.748H255.327V349.964H258.49V348.748ZM252.043 336.462H248.88V337.678H252.043V336.462ZM248.88 340.598H252.043V341.814H248.88V340.598ZM252.043 344.733H248.88V345.95H252.043V344.733ZM248.88 348.748H252.043V349.964H248.88V348.748ZM242.555 336.462H245.718V337.678H242.555V336.462ZM245.718 340.598H242.555V341.814H245.718V340.598ZM242.555 344.733H245.718V345.95H242.555V344.733ZM245.718 348.748H242.555V349.964H245.718V348.748ZM236.107 336.462H239.27V337.678H236.107V336.462ZM239.27 340.598H236.107V341.814H239.27V340.598ZM236.107 344.733H239.27V345.95H236.107V344.733ZM239.27 348.748H236.107V349.964H239.27V348.748ZM229.782 336.462H232.945V337.678H229.782V336.462ZM232.945 340.598H229.782V341.814H232.945V340.598ZM229.782 344.733H232.945V345.95H229.782V344.733ZM232.945 348.748H229.782V349.964H232.945V348.748ZM223.335 340.598H226.498V341.814H223.335V340.598ZM226.498 344.733H223.335V345.95H226.498V344.733ZM223.335 348.748H226.498V349.964H223.335V348.748ZM299.118 348.748H295.956V349.964H299.118V348.748ZM289.508 344.733H292.671V345.95H289.508V344.733ZM292.671 348.748H289.508V349.964H292.671V348.748ZM283.183 340.598H286.345V341.814H283.183V340.598ZM286.345 344.733H283.183V345.95H286.345V344.733ZM283.183 348.748H286.345V349.964H283.183V348.748ZM279.899 336.462H276.737V337.678H279.899V336.462ZM276.737 340.598H279.899V341.814H276.737V340.598ZM279.899 344.733H276.737V345.95H279.899V344.733ZM276.737 348.748H279.899V349.964H276.737V348.748ZM220.173 340.598H217.01V341.814H220.173V340.598ZM217.01 344.733H220.173V345.95H217.01V344.733ZM220.173 348.748H217.01V349.964H220.173V348.748ZM210.562 344.733H213.725V345.95H210.562V344.733ZM213.725 348.748H210.562V349.964H213.725V348.748ZM204.237 348.748H207.4V349.964H204.237V348.748Z" fill="#595858" fill-opacity="0.5"/>
<path d="M453.238 167.379V166.771H424.409V167.379C422.462 194.141 423.436 243.406 424.895 284.399H426.112C424.895 248.515 424.044 206.426 425.017 178.449H425.747C428.18 198.155 433.41 241.094 438.276 279.655H439.492C434.627 241.216 429.396 198.276 426.963 178.449H452.63C453.603 197.912 455.671 240 456.157 279.655H457.374C456.644 226.132 453.238 168.353 453.238 167.379ZM425.017 177.232C425.017 176.138 425.139 175.164 425.139 174.07C425.26 175.043 425.382 176.016 425.504 177.232H425.017ZM426.72 177.232C426.112 172.61 425.747 169.326 425.625 167.988H452.021C452.143 169.204 452.265 172.488 452.508 177.232H426.72Z" fill="#595858" fill-opacity="0.5"/>
<path fill-rule="evenodd" clip-rule="evenodd" d="M449.711 181.49H430.491V182.098H449.711V181.49ZM450.076 184.287H430.856V184.896H450.076V184.287ZM431.221 186.964H450.197V187.572H431.221V186.964ZM450.319 189.761H431.342V190.37H450.319V189.761ZM431.829 192.559H450.684V193.167H431.829V192.559ZM450.927 195.235H431.95V195.843H450.927V195.235ZM432.437 198.033H451.048V198.641H432.437V198.033ZM451.292 200.709H432.681V201.317H451.292V200.709ZM433.045 203.629H451.413V204.237H433.045V203.629ZM451.535 206.305H433.289V206.913H451.535V206.305ZM433.653 209.103H451.656V209.711H433.653V209.103ZM451.656 211.779H434.018V212.387H451.656V211.779ZM434.261 214.576H451.9V215.185H434.261V214.576ZM452.144 217.374H434.506V217.983H452.144V217.374ZM434.992 220.05H452.386V220.659H434.992V220.05ZM452.387 223.456V222.848H435.235V223.456H452.387ZM435.6 225.524H452.63V226.133H435.6V225.524ZM452.751 228.322H435.843V228.93H452.751V228.322ZM436.086 230.998H452.873V231.606H436.086V230.998ZM452.994 233.796H436.451V234.404H452.994V233.796ZM436.573 236.594H452.873V237.202H436.573V236.594ZM452.995 239.27H436.938V239.878H452.995V239.27ZM437.303 242.067H453.238V242.676H437.303V242.067ZM453.238 244.987H437.546V245.595H453.238V244.987ZM438.032 247.663H453.48V248.271H438.032V247.663ZM453.481 250.461H438.276V251.069H453.481V250.461ZM438.641 253.137H453.481V253.745H438.641V253.137ZM453.724 255.935H439.006V256.543H453.724V255.935ZM439.371 258.733H453.968V259.341H439.371V258.733ZM454.089 261.409H439.614V262.017H454.089V261.409ZM439.979 264.207H454.09V264.815H439.979V264.207Z" fill="#595858" fill-opacity="0.5"/>
<path d="M745.666 295.104V291.333V290.116V289.143H745.058C743.355 289.143 742.747 285.007 742.625 283.548H741.409C741.287 285.007 740.679 289.143 738.976 289.143H738.367V290.116V291.333V295.104H734.962V296.685H735.57C736.421 296.685 736.543 298.145 736.543 298.145V300.213H723.527V298.145C723.527 298.145 723.527 296.685 724.5 296.685H725.108V295.104H721.702V291.333V290.116V289.143H721.094C719.391 289.143 718.783 285.007 718.661 283.548H717.445C717.323 285.007 716.715 289.143 715.012 289.143H714.404V290.116V291.089H685.453V269.68C685.453 269.68 685.575 267.369 686.913 267.369H688.129V264.206H682.412V258.003V255.57V253.867H681.196C678.641 253.867 677.303 247.42 677.182 244.379H674.749C674.505 247.541 673.289 253.867 670.735 253.867H669.518V255.57V258.003V264.206H663.679V267.369H664.896C666.234 267.369 666.355 269.68 666.355 269.68V270.045H617.82V253.38C617.82 253.259 617.942 251.069 619.28 251.069H620.496V247.906H614.658V241.703V239.27V237.567H613.441C610.887 237.567 609.549 231.12 609.427 228.079H606.994C606.751 231.241 605.534 237.567 602.98 237.567H601.763V239.27V241.703V247.906H596.046V251.069H597.263C598.601 251.069 598.722 253.38 598.722 253.38V258.003H586.072V256.3H588.018V254.232L587.653 254.11C587.531 254.11 581.084 250.826 576.219 247.663V241.703H575.002V247.663C570.137 250.826 563.568 254.11 563.568 254.11L563.203 254.232V256.3H565.149V258.003H552.498V244.379C552.498 244.379 552.62 242.068 553.958 242.068H555.175V238.905H549.336V232.701V230.268V228.687H548.119C545.565 228.687 544.227 222.24 544.105 219.199H541.672C541.429 222.362 540.213 228.687 537.658 228.687H536.442V230.39V232.823V239.027H530.603V242.189H531.819C533.157 242.189 533.279 244.5 533.279 244.5V259.462H484.744V259.097C484.744 259.097 484.865 256.786 486.204 256.786H487.42V253.624H481.703V247.42V244.987V243.284H480.486C477.932 243.284 476.594 236.837 476.472 233.796H474.039C473.796 236.959 472.58 243.284 470.025 243.284H468.809V244.987V247.42V253.624H462.97V256.786H464.186C465.524 256.786 465.646 259.097 465.646 259.097V282.453H436.695V281.48V280.507H436.087C434.384 280.507 433.776 276.371 433.654 274.911H432.438C432.316 276.371 431.708 280.507 430.005 280.507H429.397V281.48V282.696V286.467H425.991V288.048H426.599C427.45 288.048 427.572 289.508 427.572 289.508V291.576H414.556V289.508C414.556 289.508 414.556 288.048 415.53 288.048H416.138V286.467H412.732V282.696V281.48V280.507H412.124C410.421 280.507 409.812 276.371 409.691 274.911H408.474C408.353 276.371 407.744 280.507 406.041 280.507H405.433V281.48V282.696V286.467H402.027V288.048H402.635C403.487 288.048 403.609 289.508 403.609 289.508V340.841H403V354.586H465.646H484.744H533.279H535.712H552.377V337.8C552.377 337.678 552.498 335.489 553.836 335.489H555.053V334.151H596.046V335.489H597.263C598.601 335.489 598.722 337.8 598.722 337.8V354.586H615.387H617.82H666.355H685.453H748.099V340.841H747.491V298.145C747.491 298.145 747.491 296.685 748.464 296.685H749.072V295.104H745.666ZM742.017 286.954C742.382 288.17 742.99 289.508 744.085 289.995H740.07C741.044 289.508 741.652 288.292 742.017 286.954ZM739.584 291.211H744.45V294.982H743.72C743.476 293.036 742.26 292.427 742.26 292.427L742.017 292.306L741.773 292.427C741.773 292.427 740.435 293.036 740.192 294.982H739.584V291.211ZM742.625 295.104H741.53C741.652 294.374 741.895 294.009 742.138 293.765C742.26 294.009 742.503 294.374 742.625 295.104ZM738.367 296.32H740.192H743.841H745.666H746.761C746.518 296.685 746.396 297.171 746.274 297.536H737.638C737.516 297.171 737.394 296.685 737.151 296.32H738.367ZM736.543 301.429V340.963H723.527V301.429H736.543ZM713.796 298.753H722.311V340.841H713.796V298.753ZM722.919 296.32C722.676 296.685 722.554 297.171 722.432 297.536H713.796C713.674 297.171 713.553 296.685 713.309 296.32H714.404H716.229H719.878H721.702H722.919ZM717.567 295.104C717.688 294.374 717.932 294.009 718.175 293.765C718.418 294.009 718.661 294.374 718.783 295.104H717.567ZM720.486 295.104H719.756C719.513 293.157 718.297 292.549 718.297 292.549L718.053 292.427L717.81 292.549C717.81 292.549 716.472 293.157 716.229 295.104H715.499V291.333H720.364V295.104H720.486ZM718.053 286.954C718.418 288.17 719.026 289.508 720.121 289.995H716.107C717.08 289.508 717.688 288.292 718.053 286.954ZM714.404 292.306V295.104H710.998V296.685H711.606C712.458 296.685 712.579 298.145 712.579 298.145V340.841H706.254V298.145H705.646V340.841H698.712V298.145H698.226V340.841H691.292V298.145H690.684V340.841H685.453V292.184H714.404V292.306ZM679.006 340.841H672.924V275.519C673.897 274.668 675.235 273.573 675.965 273.573C676.695 273.573 678.155 274.668 679.006 275.519V340.841ZM679.979 274.911C679.614 274.546 677.303 272.356 675.843 272.356C674.384 272.356 672.194 274.424 671.708 274.911L671.586 275.033V340.841H668.788V270.775H683.02V340.841H680.223V275.033L679.979 274.911ZM675.965 250.947C676.573 252.772 677.425 254.475 678.763 255.448H673.046C674.384 254.597 675.357 252.772 675.965 250.947ZM671.829 258.003H679.858V264.206H678.398C678.033 261.165 676.208 260.314 676.087 260.314L675.843 260.192L675.6 260.314C675.479 260.314 673.654 261.165 673.289 264.206H671.829V258.003V258.003ZM674.505 264.206C674.749 262.625 675.479 261.895 675.843 261.53C676.208 261.774 676.938 262.625 677.182 264.206H674.505ZM669.396 266.639H682.412H683.872C683.507 267.248 683.264 267.856 683.142 268.464H668.545C668.423 267.856 668.18 267.248 667.815 266.639H669.396ZM666.355 271.262V340.841H661.125V278.074H660.517V340.841H653.583V278.074H652.975V340.841H646.041V278.074H645.433V340.841H638.621V278.074H638.013V340.841H631.079V278.074H630.471V340.841H623.537V278.074H622.929V340.841H617.699V337.922C617.699 337.8 617.82 335.61 619.158 335.61H620.375V332.448H617.699V271.262H666.355ZM560.284 315.053C556.513 311.16 554.81 306.781 555.418 302.159C556.999 290.238 573.056 279.655 575.61 278.195C578.043 279.777 594.222 290.238 595.803 302.159C596.411 306.781 594.83 311.039 590.937 315.053L590.451 315.539L590.937 315.904C590.937 315.904 595.681 320.04 593.127 329.042L576.219 321.865V316.877H575.002V321.865L558.094 329.042C555.418 320.04 560.04 316.026 560.284 315.904L560.77 315.539L560.284 315.053ZM575.61 322.96L590.572 329.285H560.77L575.61 322.96ZM592.154 315.418C595.925 311.282 597.506 306.781 596.898 302.037C595.073 288.535 576.705 277.465 575.854 276.979L575.489 276.736L575.124 276.979C574.394 277.465 555.904 288.535 554.08 302.037C553.472 306.903 555.053 311.404 558.824 315.418C557.607 316.756 554.445 321.135 556.756 329.285H552.255V271.262H598.601V329.285H594.1C596.654 321.135 593.492 316.756 592.154 315.418ZM550.187 336.705H535.59C535.469 336.097 535.225 335.489 534.86 334.88H550.795C550.552 335.489 550.309 336.097 550.187 336.705ZM545.93 332.448H539.848V262.625C540.699 261.652 542.28 260.436 542.889 260.436C543.619 260.436 545.078 261.652 545.93 262.625V332.448ZM547.146 332.448V262.139L547.025 262.017C546.66 261.53 544.47 259.219 542.889 259.219C541.429 259.219 539.239 261.53 538.753 262.017L538.631 262.139V332.448H535.833V245.595H550.066V332.448H547.146ZM557.364 267.491H554.08V264.571C554.566 264.206 555.418 263.598 555.783 263.598C556.148 263.598 556.878 264.085 557.486 264.571V267.491H557.364ZM565.149 268.707H570.866H580.476H586.193H598.844V270.045H552.498V268.707H565.149ZM562.96 267.491H559.554V264.571C560.04 264.206 560.892 263.598 561.257 263.598C561.622 263.598 562.351 264.085 562.96 264.571V267.491V267.491ZM579.138 267.491H571.961V261.044C573.056 260.192 574.759 259.097 575.489 259.097C576.219 259.097 578.043 260.192 579.016 261.044V267.491H579.138ZM591.546 267.491H588.261V264.571C588.748 264.206 589.599 263.598 589.964 263.598C590.329 263.598 591.059 264.085 591.667 264.571V267.491H591.546ZM597.141 267.491H593.857V264.571C594.343 264.206 595.195 263.598 595.56 263.598C595.925 263.598 596.654 264.085 597.263 264.571V267.491H597.141ZM601.155 254.597H615.387V332.448H612.59V262.139L612.468 262.017C612.103 261.53 609.792 259.219 608.332 259.219C606.751 259.219 604.683 261.53 604.196 262.017L604.075 262.139V332.448H601.277V254.597H601.155ZM611.373 332.448H605.291V262.625C606.143 261.652 607.724 260.436 608.332 260.436C608.94 260.436 610.522 261.652 611.373 262.625V332.448ZM600.304 334.88H616.239C615.874 335.489 615.631 336.097 615.509 336.705H600.912C600.912 336.097 600.669 335.489 600.304 334.88ZM608.332 234.769C608.94 236.594 609.792 238.297 611.13 239.27H605.413C606.751 238.297 607.724 236.594 608.332 234.769ZM604.318 241.703H612.346V247.906H610.887C610.522 244.865 608.575 244.014 608.575 244.014L608.332 243.892L608.089 244.014C607.967 244.014 606.143 244.865 605.778 247.906H604.318V241.703V241.703ZM606.872 247.906C607.116 246.325 607.846 245.595 608.21 245.23C608.575 245.474 609.305 246.325 609.549 247.906H606.872ZM601.885 250.339H614.779H616.239C615.874 250.947 615.631 251.556 615.509 252.164H600.912C600.79 251.556 600.547 250.947 600.182 250.339H601.885ZM598.722 259.219V267.491H597.749V264.328L597.628 264.206C597.384 263.963 596.168 262.99 595.438 262.99C594.708 262.99 593.492 263.963 593.249 264.206L593.127 264.328V267.491H592.032V264.328L591.91 264.206C591.667 263.963 590.451 262.99 589.721 262.99C588.991 262.99 587.775 263.963 587.531 264.206L587.41 264.328V267.491H585.828V259.219H598.722ZM564.419 255.083C565.879 254.232 571.353 251.434 575.61 248.636C579.99 251.434 585.463 254.232 586.801 254.962V255.083H586.072H565.149H564.419V255.083ZM584.855 256.3V267.491H580.354V260.436L580.111 260.192C579.868 259.949 577.07 257.881 575.61 257.881C574.029 257.881 571.353 259.949 570.988 260.192L570.745 260.436V267.491H566.244V256.3H584.855ZM565.149 259.219V267.491H563.568V264.328L563.446 264.206C563.203 263.963 561.987 262.99 561.257 262.99C560.527 262.99 559.31 263.963 559.067 264.206L558.945 264.328V267.491H557.851V264.328L557.729 264.206C557.486 263.963 556.269 262.99 555.54 262.99C554.81 262.99 553.593 263.963 553.35 264.206L553.228 264.328V267.491H552.255V259.219H565.149ZM542.889 225.768C543.497 227.592 544.348 229.295 545.686 230.268H540.091C541.429 229.295 542.28 227.592 542.889 225.768ZM538.875 232.701H546.903V238.905H545.443C545.078 235.864 543.132 235.012 543.132 235.012L542.889 234.891L542.645 235.012C542.524 235.012 540.699 235.864 540.334 238.905H538.875V232.701ZM541.551 239.027C541.794 237.445 542.524 236.715 542.889 236.35C543.254 236.594 543.983 237.324 544.227 239.027H541.551ZM536.442 241.459H549.336H550.795C550.431 242.068 550.187 242.676 550.066 243.284H535.469C535.347 242.676 535.104 242.068 534.739 241.459H536.442ZM533.279 260.679V332.448H530.603V335.61H531.819C533.157 335.61 533.279 337.922 533.279 337.922V340.841H528.048V268.221H527.44V340.841H520.628V268.221H520.02V340.841H513.086V268.221H512.478V340.841H505.545V268.221H504.936V340.841H498.003V268.221H497.516V340.841H490.583V268.221H489.974V340.841H484.744V260.557H533.279V260.679ZM478.297 340.841H472.215V265.301C473.188 264.45 474.648 263.355 475.256 263.355C475.986 263.355 477.445 264.45 478.297 265.301V340.841ZM479.392 264.693C479.027 264.328 476.837 262.139 475.256 262.139C473.796 262.139 471.606 264.206 471.12 264.693L470.877 264.815V340.841H468.079V260.192H482.311V340.841H479.513V264.815L479.392 264.693ZM475.256 240.365C475.864 242.189 476.715 243.892 478.054 244.865H472.336C473.796 243.892 474.648 242.189 475.256 240.365ZM471.242 247.298H479.27V253.502H477.81C477.445 250.461 475.499 249.609 475.499 249.609L475.256 249.488L475.012 249.609C474.891 249.609 473.066 250.461 472.701 253.502H471.242V247.298V247.298ZM473.918 253.624C474.161 252.042 474.891 251.312 475.256 250.947C475.621 251.191 476.351 251.921 476.594 253.624H473.918ZM468.809 256.056H481.703H483.163C482.798 256.665 482.554 257.273 482.433 257.881H467.836C467.714 257.273 467.471 256.665 467.106 256.056H468.809ZM465.768 340.841H460.537V289.508H459.807V340.963H452.874V289.508H452.265V340.963H445.332V289.508H444.724V340.963H438.398V289.508C438.398 289.508 438.398 288.048 439.371 288.048H439.98V286.467H436.574V283.669H465.524V340.841H465.768ZM437.303 340.841H428.788V289.995H437.303V340.841ZM433.046 278.317C433.411 279.533 434.019 280.871 435.114 281.358H431.1C432.073 280.871 432.681 279.655 433.046 278.317ZM430.613 282.574H435.479V286.345H434.749C434.506 284.399 433.289 283.791 433.168 283.791L432.924 283.669L432.681 283.791C432.681 283.791 431.343 284.399 431.221 286.345H430.613V282.574ZM433.654 286.467H432.559C432.681 285.737 432.924 285.372 433.168 285.129C433.289 285.372 433.533 285.737 433.654 286.467ZM429.397 287.683H431.221H434.871H436.695H437.79C437.547 288.048 437.425 288.535 437.303 288.9H428.667C428.545 288.535 428.424 288.048 428.18 287.683H429.397ZM427.694 292.792V340.963H414.678V292.792H427.694V292.792ZM409.082 278.317C409.447 279.533 410.056 280.871 411.15 281.358H407.136C408.109 280.871 408.718 279.655 409.082 278.317ZM406.65 282.574H411.515V286.345H410.785C410.542 284.399 409.326 283.791 409.204 283.791L408.961 283.669L408.718 283.791C408.718 283.791 407.379 284.399 407.258 286.345H406.528V282.574H406.65ZM409.691 286.467H408.596C408.718 285.737 408.961 285.372 409.204 285.129C409.326 285.372 409.569 285.737 409.691 286.467ZM405.433 287.683H407.258H410.907H412.732H413.827C413.583 288.048 413.462 288.535 413.34 288.9H404.703C404.582 288.535 404.46 288.048 404.217 287.683H405.433ZM404.947 290.116H413.462V340.963H404.947V290.116ZM416.624 352.275H410.299V347.896C411.272 347.288 412.732 346.436 413.462 346.436C414.191 346.436 415.651 347.288 416.624 347.896V352.275V352.275ZM427.937 352.275H421.612V347.896C422.585 347.288 424.044 346.436 424.774 346.436C425.504 346.436 426.964 347.288 427.937 347.896V352.275V352.275ZM439.25 352.275H432.924V347.896C433.897 347.288 435.357 346.436 436.087 346.436C436.817 346.436 438.277 347.288 439.25 347.896V352.275V352.275ZM450.562 352.275H444.237V347.896C445.21 347.288 446.67 346.436 447.4 346.436C448.13 346.436 449.589 347.288 450.562 347.896V352.275V352.275ZM461.875 352.275H455.55V347.896C456.523 347.288 457.983 346.436 458.712 346.436C459.442 346.436 460.902 347.288 461.875 347.896V352.275V352.275ZM463.092 352.275V347.166L462.848 347.045C462.605 346.801 460.172 345.098 458.712 345.098C457.253 345.098 454.82 346.801 454.577 347.045L454.333 347.166V352.275H451.779V347.166L451.536 347.045C451.292 346.801 448.859 345.098 447.4 345.098C445.94 345.098 443.507 346.801 443.264 347.045L443.021 347.166V352.275H440.466V347.166L440.223 347.045C439.98 346.801 437.547 345.098 436.087 345.098C434.627 345.098 432.194 346.801 431.951 347.045L431.708 347.166V352.275H429.153V347.166L428.91 347.045C428.667 346.801 426.234 345.098 424.774 345.098C423.315 345.098 420.882 346.801 420.638 347.045L420.395 347.166V352.275H417.841V347.166L417.597 347.045C417.354 346.801 414.921 345.098 413.462 345.098C412.002 345.098 409.569 346.801 409.326 347.045L409.082 347.166V352.275H405.555V343.395H465.768V352.275H463.092ZM478.418 352.275H472.093V347.896C473.066 347.288 474.526 346.436 475.256 346.436C475.986 346.436 477.445 347.288 478.418 347.896V352.275V352.275ZM479.635 352.275V347.166L479.392 347.045C479.148 346.801 476.715 345.098 475.256 345.098C473.796 345.098 471.363 346.801 471.12 347.045L470.877 347.166V352.275H468.201V343.395H482.433V352.275H479.635ZM495.813 352.275H489.488V347.896C490.461 347.288 491.921 346.436 492.651 346.436C493.38 346.436 494.84 347.288 495.813 347.896V352.275V352.275ZM507.126 352.275H500.801V347.896C501.774 347.288 503.233 346.436 503.963 346.436C504.693 346.436 506.153 347.288 507.126 347.896V352.275V352.275ZM518.439 352.275H512.113V347.896C513.086 347.288 514.546 346.436 515.276 346.436C516.006 346.436 517.466 347.288 518.439 347.896V352.275V352.275ZM529.751 352.275H523.426V347.896C524.399 347.288 525.859 346.436 526.589 346.436C527.319 346.436 528.778 347.288 529.751 347.896V352.275V352.275ZM533.279 352.275H530.968V347.166L530.725 347.045C530.481 346.801 528.048 345.098 526.589 345.098C525.129 345.098 522.696 346.801 522.453 347.045L522.21 347.166V352.275H519.655V347.166L519.412 347.045C519.169 346.801 516.736 345.098 515.276 345.098C513.816 345.098 511.383 346.801 511.14 347.045L510.897 347.166V352.275H508.342V347.166L508.099 347.045C507.856 346.801 505.423 345.098 503.963 345.098C502.504 345.098 500.071 346.801 499.827 347.045L499.584 347.166V352.275H497.03V347.166L496.786 347.045C496.543 346.801 494.11 345.098 492.651 345.098C491.191 345.098 488.758 346.801 488.515 347.045L488.271 347.166V352.275H484.865V343.395H533.401V352.275H533.279ZM547.389 352.275H538.51V345.342C539.726 344.49 541.916 343.274 543.01 343.274C543.983 343.274 546.173 344.49 547.511 345.342V352.275H547.389ZM550.066 352.275H548.606V344.733L548.363 344.612C547.998 344.369 544.713 342.057 542.889 342.057C541.064 342.057 537.78 344.369 537.415 344.612L537.172 344.733V352.275H535.712V340.963V339.138H549.944V352.275H550.066ZM555.175 333.056V332.448H552.498V330.501H557.364L557.486 330.745L557.972 330.501H593.492L593.978 330.745L594.1 330.501H598.966V332.448H596.046V333.056H555.175ZM612.711 352.275H603.831V345.342C605.048 344.49 607.237 343.274 608.332 343.274C609.305 343.274 611.495 344.49 612.833 345.342V352.275H612.711ZM615.387 352.275H613.928V344.733L613.684 344.612C613.319 344.369 610.035 342.057 608.21 342.057C606.386 342.057 603.102 344.369 602.737 344.612L602.493 344.733V352.275H601.034V339.138H615.266V340.963V352.275H615.387ZM627.795 352.275H621.469V347.775C622.443 347.166 623.902 346.315 624.632 346.315C625.362 346.315 626.822 347.166 627.795 347.775V352.275ZM639.108 352.275H632.782V347.775C633.755 347.166 635.215 346.315 635.945 346.315C636.675 346.315 638.134 347.166 639.108 347.775V352.275ZM650.42 352.275H644.095V347.775C645.068 347.166 646.528 346.315 647.258 346.315C647.987 346.315 649.447 347.166 650.42 347.775V352.275ZM661.733 352.275H655.408V347.775C656.381 347.166 657.84 346.315 658.57 346.315C659.3 346.315 660.76 347.166 661.733 347.775V352.275ZM662.949 352.275V347.166L662.706 347.045C662.463 346.801 659.908 345.098 658.57 345.098C657.111 345.098 654.678 346.801 654.434 347.045L654.191 347.166V352.275H651.637V347.166L651.393 347.045C651.15 346.801 648.596 345.098 647.258 345.098C645.798 345.098 643.365 346.801 643.122 347.045L642.878 347.166V352.275H640.324V347.166L640.081 347.045C639.837 346.801 637.283 345.098 635.945 345.098C634.485 345.098 632.052 346.801 631.809 347.045L631.566 347.166V352.275H629.011V347.166L628.768 347.045C628.525 346.801 625.97 345.098 624.632 345.098C623.172 345.098 620.74 346.801 620.496 347.045L620.253 347.166V352.275H617.942V343.395H666.477V352.275H662.949ZM679.128 352.275H672.681V347.775C673.654 347.166 675.114 346.315 675.843 346.315C676.573 346.315 678.033 347.166 679.006 347.775V352.275H679.128ZM680.344 352.275V347.166L680.101 347.045C679.858 346.801 677.303 345.098 675.965 345.098C674.505 345.098 672.073 346.801 671.829 347.045L671.586 347.166V352.275H668.91V343.395H683.142V352.275H680.344ZM695.671 352.275H689.346V347.775C690.319 347.166 691.779 346.315 692.508 346.315C693.238 346.315 694.698 347.166 695.671 347.775V352.275ZM706.984 352.275H700.658V347.775C701.632 347.166 703.091 346.315 703.821 346.315C704.551 346.315 706.011 347.166 706.984 347.775V352.275ZM718.297 352.275H711.971V347.775C712.944 347.166 714.404 346.315 715.134 346.315C715.864 346.315 717.323 347.166 718.297 347.775V352.275ZM729.609 352.275H723.284V347.775C724.257 347.166 725.717 346.315 726.447 346.315C727.176 346.315 728.636 347.166 729.609 347.775V352.275ZM740.922 352.275H734.597V347.775C735.57 347.166 737.029 346.315 737.759 346.315C738.489 346.315 739.949 347.166 740.922 347.775V352.275ZM745.666 352.275H742.138V347.166L741.895 347.045C741.652 346.801 739.097 345.098 737.759 345.098C736.3 345.098 733.867 346.801 733.623 347.045L733.38 347.166V352.275H730.826V347.166L730.582 347.045C730.339 346.801 727.785 345.098 726.447 345.098C724.987 345.098 722.554 346.801 722.311 347.045L722.067 347.166V352.275H719.513V347.166L719.27 347.045C719.026 346.801 716.472 345.098 715.134 345.098C713.674 345.098 711.241 346.801 710.998 347.045L710.755 347.166V352.275H708.2V347.166L707.957 347.045C707.714 346.801 705.159 345.098 703.821 345.098C702.361 345.098 699.929 346.801 699.685 347.045L699.442 347.166V352.275H696.888V347.166L696.644 347.045C696.401 346.801 693.846 345.098 692.508 345.098C691.049 345.098 688.616 346.801 688.373 347.045L688.129 347.166V352.275H685.575V343.395H745.666V352.275ZM737.759 340.841V298.753H746.274V340.841H737.759Z" fill="#595858" fill-opacity="0.5"/>
<path d="M572.204 337.557V353.735H578.894V337.557H575.61H572.204ZM578.286 353.127H572.812V338.165H575.488H578.164V353.127H578.286Z" fill="#595858" fill-opacity="0.5"/>
<path d="M562.594 337.557V353.735H569.284V337.557H566H562.594ZM568.555 353.127H563.202V338.165H565.879H568.555V353.127Z" fill="#595858" fill-opacity="0.5"/>
<path d="M554.08 337.557V353.735H559.675V337.557H556.877H554.08ZM559.067 353.127H554.688V338.165H556.877H559.067V353.127Z" fill="#595858" fill-opacity="0.5"/>
<path d="M582.057 337.557V353.735H588.747V337.557H585.463H582.057ZM588.139 353.127H582.665V338.165H585.341H588.017V353.127H588.139Z" fill="#595858" fill-opacity="0.5"/>
<path d="M591.667 337.557V353.735H597.262V337.557H594.465H591.667ZM596.654 353.127H592.275V338.165H594.465H596.654V353.127Z" fill="#595858" fill-opacity="0.5"/>
<path d="M806 352.275H0V354.708H806V352.275Z" fill="#595858" fill-opacity="0.5"/>
<path d="M25.545 353.613L24.3286 353.37C24.6935 351.302 25.6667 349.721 27.1264 348.869C28.951 347.896 30.8973 348.139 31.8704 348.383C32.8436 346.68 34.5465 345.463 36.6145 344.977C38.6824 344.49 40.9936 344.733 42.6966 345.828C44.6428 339.138 51.0899 339.989 51.2115 339.989L51.0899 341.206C50.8466 341.206 45.251 340.476 43.7913 346.923L43.5481 347.896L42.8182 347.288C41.2369 346.072 39.0473 345.707 36.9794 346.193C35.0331 346.68 33.5734 347.775 32.8436 349.356L32.6003 349.842L32.1137 349.599C32.1137 349.599 29.6809 348.748 27.8562 349.842C26.6398 350.694 25.91 351.91 25.545 353.613Z" fill="#595858" fill-opacity="0.5"/>
<path d="M88.4335 297.536V275.033L72.985 263.112V270.167H71.6469V263.112L56.1984 275.033V297.536L49.9947 303.74V354.465H65.5648V353.492H66.9029H77.8507H79.0671V354.465H94.6373V303.74L88.4335 297.536ZM90.0149 352.032H81.4999V307.389L75.4178 302.402V291.454L90.0149 305.93V352.032ZM72.985 270.897V296.198H71.6469V270.897H72.985ZM69.2141 302.28L63.132 307.268V351.91H54.6171V305.808L69.2141 291.333V302.28ZM52.3059 304.713L58.5096 298.509V276.127L69.0925 267.977V289.508L53.279 305.2V351.91H52.3059V304.713ZM67.3895 352.883V347.166C67.3895 346.923 67.876 343.152 72.2552 343.152C76.6343 343.152 77.1208 346.923 77.1208 347.166V352.883H67.3895ZM67.3895 310.917C67.3895 310.795 67.876 307.389 72.2552 307.389C76.6343 307.389 77.1208 310.795 77.1208 310.917V345.342C76.5126 344.125 75.0529 342.666 72.2552 342.666C69.4574 342.666 67.9977 344.125 67.3895 345.342V310.917ZM77.8507 352.883V310.795C77.8507 310.795 77.3641 306.659 72.3768 306.659C67.3895 306.659 66.9029 310.674 66.9029 310.795V347.045V352.762H65.5648V308.362L71.6469 303.375V296.563H72.985V303.375L79.0671 308.362V352.762H77.8507V352.883ZM92.3261 352.032H91.2313V305.321L75.4178 289.63V268.099L86.0007 276.249V298.631L92.2044 304.835V352.032H92.3261Z" fill="#595858" fill-opacity="0.5"/>
</svg>
