<svg width="24" height="25" viewBox="0 0 24 25" fill="none" xmlns="http://www.w3.org/2000/svg">
<path fill-rule="evenodd" clip-rule="evenodd" d="M15.2981 4.89987C15.9982 4.37478 16.8989 4.14113 17.6601 4.04597C18.0353 3.99905 18.3641 3.98731 18.5981 3.9873C18.6334 3.9873 18.6666 3.98757 18.6973 3.98802L20.8778 7.91292L19.8993 8.89141L18.4005 8.14202C18.0548 7.96913 17.6343 8.10929 17.4614 8.45507L16.5832 10.2114C16.51 10.3579 16.4904 10.5254 16.5279 10.6848L18.4613 18.9019C18.106 19.1603 17.7347 19.398 17.349 19.6131L14.4851 14.8399C14.3586 14.629 14.1307 14.5 13.8848 14.5H10.1168C9.86062 14.5 9.62492 14.6399 9.50226 14.8648L6.85153 19.7245C6.39072 19.4801 5.94934 19.2039 5.53032 18.8988L7.40375 10H11.8539C12.1528 10 12.4189 9.81116 12.5167 9.52749C12.7006 8.99383 13.046 8.09162 13.529 7.18748C14.0177 6.27262 14.62 5.40843 15.2981 4.89987ZM4.65711 18.1924L6.38136 10.0022C4.77858 10.0636 3.49806 11.3823 3.49806 13.0001H2.49806C2.49806 10.7909 4.28898 9 6.4982 9H6.99806V9.01899C7.05032 9.00655 7.10469 9 7.16033 9H11.6422C11.8484 8.42586 12.188 7.57548 12.647 6.71628C13.1576 5.76045 13.8434 4.74086 14.6981 4.09987C15.5979 3.42496 16.6972 3.15857 17.536 3.05369C17.9608 3.00059 18.332 2.98731 18.598 2.9873C18.7313 2.9873 18.8389 2.99063 18.9145 2.99406C18.9523 2.99578 18.9821 2.99752 19.0032 2.9989L19.0282 3.00064L19.0356 3.0012L19.038 3.00139L19.0389 3.00146L19.0393 3.00149C19.0394 3.00151 19.0396 3.00152 18.9981 3.49979L19.0396 3.00152L19.3055 3.02367L19.4351 3.25697L21.8619 7.6251C22.0137 7.8983 21.9659 8.23902 21.7449 8.46002L20.4535 9.75142C20.2405 9.96447 19.915 10.0173 19.6455 9.88254L18.2217 9.17061L17.5262 10.5615L19.3247 18.205C19.8373 17.7469 20.3068 17.2414 20.7263 16.6954L21.5193 17.3046C19.3265 20.1588 15.8771 22 11.9979 22C8.11873 22 4.66936 20.1588 2.47656 17.3046L3.26955 16.6954C3.68521 17.2364 4.14995 17.7376 4.65711 18.1924ZM7.75697 20.1528C9.06213 20.6986 10.4948 21 11.9979 21C13.5832 21 15.0901 20.6648 16.4517 20.0612L13.715 15.5H10.2949L7.75697 20.1528Z" fill="white"/>
<path fill-rule="evenodd" clip-rule="evenodd" d="M15.2981 4.89987C15.9982 4.37478 16.8989 4.14113 17.6601 4.04597C18.0353 3.99905 18.3641 3.98731 18.5981 3.9873C18.6334 3.9873 18.6666 3.98757 18.6973 3.98802L20.8778 7.91292L19.8993 8.89141L18.4005 8.14202C18.0548 7.96913 17.6343 8.10929 17.4614 8.45507L16.5832 10.2114C16.51 10.3579 16.4904 10.5254 16.5279 10.6848L18.4613 18.9019C18.106 19.1603 17.7347 19.398 17.349 19.6131L14.4851 14.8399C14.3586 14.629 14.1307 14.5 13.8848 14.5H10.1168C9.86062 14.5 9.62492 14.6399 9.50226 14.8648L6.85153 19.7245C6.39072 19.4801 5.94934 19.2039 5.53032 18.8988L7.40375 10H11.8539C12.1528 10 12.4189 9.81116 12.5167 9.52749C12.7006 8.99383 13.046 8.09162 13.529 7.18748C14.0177 6.27262 14.62 5.40843 15.2981 4.89987ZM4.65711 18.1924L6.38136 10.0022C4.77858 10.0636 3.49806 11.3823 3.49806 13.0001H2.49806C2.49806 10.7909 4.28898 9 6.4982 9H6.99806V9.01899C7.05032 9.00655 7.10469 9 7.16033 9H11.6422C11.8484 8.42586 12.188 7.57548 12.647 6.71628C13.1576 5.76045 13.8434 4.74086 14.6981 4.09987C15.5979 3.42496 16.6972 3.15857 17.536 3.05369C17.9608 3.00059 18.332 2.98731 18.598 2.9873C18.7313 2.9873 18.8389 2.99063 18.9145 2.99406C18.9523 2.99578 18.9821 2.99752 19.0032 2.9989L19.0282 3.00064L19.0356 3.0012L19.038 3.00139L19.0389 3.00146L19.0393 3.00149C19.0394 3.00151 19.0396 3.00152 18.9981 3.49979L19.0396 3.00152L19.3055 3.02367L19.4351 3.25697L21.8619 7.6251C22.0137 7.8983 21.9659 8.23902 21.7449 8.46002L20.4535 9.75142C20.2405 9.96447 19.915 10.0173 19.6455 9.88254L18.2217 9.17061L17.5262 10.5615L19.3247 18.205C19.8373 17.7469 20.3068 17.2414 20.7263 16.6954L21.5193 17.3046C19.3265 20.1588 15.8771 22 11.9979 22C8.11873 22 4.66936 20.1588 2.47656 17.3046L3.26955 16.6954C3.68521 17.2364 4.14995 17.7376 4.65711 18.1924ZM7.75697 20.1528C9.06213 20.6986 10.4948 21 11.9979 21C13.5832 21 15.0901 20.6648 16.4517 20.0612L13.715 15.5H10.2949L7.75697 20.1528Z" fill="url(#paint0_linear_590_3103)"/>
<defs>
<linearGradient id="paint0_linear_590_3103" x1="2.90837" y1="12.7234" x2="21.5544" y2="12.7234" gradientUnits="userSpaceOnUse">
<stop offset="0.0798496" stop-color="#AF6F57"/>
<stop offset="0.213542" stop-color="#FDB491"/>
<stop offset="0.364521" stop-color="#C18369"/>
<stop offset="0.527463" stop-color="#A15C40"/>
<stop offset="0.793094" stop-color="#E28F68"/>
<stop offset="0.836637" stop-color="#B66D50"/>
<stop offset="1" stop-color="#A15C40"/>
</linearGradient>
</defs>
</svg>
